<svg width="158" height="32" fill="none" xmlns="http://www.w3.org/2000/svg"><circle cx="16" cy="16" r="16" fill="#DBFF00"/><path d="M9.394 22.955c1.665 2.802 5.6 4.16 9.091 3.048 3.69-1.177 5.484-4.67 4.007-7.802l-1.913-4.06-2.949 2.323 1.512 3.06c.713 1.512-.153 3.2-1.935 3.767-1.782.569-3.804-.197-4.517-1.71l-.42-.892-2.876 2.266zm4.524-17.43c-3.69 1.176-5.484 4.67-4.007 7.802l2.076 4.405 2.897-2.283-1.623-3.445c-.713-1.513.153-3.2 1.935-3.768 1.782-.568 3.804.198 4.517 1.71l.583 1.238 2.895-2.282c-1.543-3.023-5.649-4.533-9.273-3.377z" fill="#353535"/><path fill-rule="evenodd" clip-rule="evenodd" d="M59.488 10.994v-2.72l3.808-3.033v5.753h3.401v2.918h-3.4v7.294c0 .602.116 1.05.348 1.342.233.291.64.437 1.221.437.31 0 .63-.048.96-.146.348-.116.639-.252.871-.408v3.21a4.5 4.5 0 01-1.279.408 7.443 7.443 0 01-1.279.117c-1.511 0-2.664-.37-3.459-1.11-.795-.758-1.192-1.847-1.192-3.267v-7.878h-.002v-2.917h.002zm83.451-2.587v2.966a3.814 3.814 0 00-.639-.262 8.406 8.406 0 00-1.599-.409 9.072 9.072 0 00-1.279-.117c-2.326 0-4.06.681-5.203 2.043-1.144 1.361-1.716 3.219-1.716 5.572 0 1.595.194 2.908.582 3.94.407 1.03.959 1.837 1.657 2.42a6.045 6.045 0 002.413 1.226c.91.234 1.87.35 2.877.35.776 0 1.551-.077 2.326-.233a8.776 8.776 0 002.122-.7c.64-.33 1.144-.74 1.512-1.226.387-.486.581-1.06.581-1.721V5.576l-3.634 2.831zm-.814 14.287c-.523.194-1.182.291-1.976.291-1.008 0-1.803-.194-2.384-.583-.562-.409-.959-.963-1.192-1.663-.232-.7-.349-1.517-.349-2.451 0-1.07.146-1.945.436-2.626.291-.7.727-1.206 1.308-1.517.582-.33 1.318-.496 2.21-.496.446 0 .911.058 1.395.175.485.117.94.301 1.366.554v7.47c0 .369-.271.651-.814.846zm-92.186 3.355c-.988 0-1.87-.049-2.645-.146a11.026 11.026 0 01-2.093-.467 14.22 14.22 0 01-1.89-.817v-3.822c.814.661 1.764 1.187 2.85 1.576 1.104.37 2.228.554 3.371.554 1.047 0 1.832-.204 2.355-.613.543-.428.814-1.04.814-1.838 0-.603-.223-1.09-.669-1.459-.426-.37-.998-.69-1.715-.962a75.656 75.656 0 00-2.354-.847 27.448 27.448 0 01-1.774-.7 6.848 6.848 0 01-1.54-1.021 4.57 4.57 0 01-1.076-1.517c-.271-.623-.407-1.381-.407-2.276 0-.72.136-1.43.407-2.13a5.19 5.19 0 011.25-1.867c.562-.564 1.289-1.012 2.18-1.342.892-.33 1.958-.496 3.198-.496a12.4 12.4 0 012.035.146 9.68 9.68 0 011.715.437c.543.195 1.105.438 1.686.73v3.822c-.465-.33-.96-.642-1.483-.934a8.268 8.268 0 00-1.686-.758 6.516 6.516 0 00-1.89-.321c-.697-.02-1.298.058-1.802.233-.503.175-.89.438-1.162.788-.272.35-.407.768-.407 1.254 0 .603.164 1.09.494 1.46.33.35.794.641 1.395.875.601.233 1.289.476 2.064.729a19.18 19.18 0 012.122.788c.679.272 1.27.622 1.774 1.05.523.428.93.953 1.22 1.576.31.622.466 1.38.466 2.275 0 1.09-.252 2.091-.756 3.006-.504.914-1.26 1.653-2.268 2.217-.988.544-2.248.817-3.779.817zm25.619.087c-.815 0-1.59-.077-2.326-.233a6.344 6.344 0 01-1.977-.759 4.114 4.114 0 01-1.395-1.488c-.33-.641-.494-1.439-.494-2.392 0-.992.203-1.828.61-2.51.407-.7.998-1.225 1.773-1.575.795-.37 1.764-.554 2.907-.554.698 0 1.347.068 1.948.204.6.117 1.143.282 1.628.496.222.098.425.2.61.306V16.45c0-.953-.3-1.644-.9-2.072-.602-.447-1.445-.67-2.53-.67-.833 0-1.686.145-2.558.437-.872.272-1.58.632-2.122 1.08v-3.356c.523-.33 1.308-.622 2.355-.875 1.046-.253 2.17-.38 3.372-.38.504 0 1.037.05 1.599.146a7.23 7.23 0 011.598.467c.524.214.998.516 1.425.905.426.37.765.846 1.017 1.43.252.563.378 1.254.378 2.07v6.974c0 .914-.29 1.634-.872 2.16-.581.505-1.386.855-2.413 1.05-1.027.213-2.238.32-3.633.32zm3.284-3.88v-2.58a6.399 6.399 0 00-.726-.221 7.469 7.469 0 00-2.035-.263c-1.027 0-1.793.166-2.297.496-.504.331-.756.847-.756 1.547 0 .486.136.895.407 1.225.272.311.62.555 1.047.73a3.87 3.87 0 001.337.233c1.066 0 1.831-.068 2.297-.204.484-.156.726-.477.726-.963zM93.39 26.02a9.5 9.5 0 01-2.79-.409 6.516 6.516 0 01-2.384-1.313c-.698-.603-1.25-1.38-1.657-2.334-.407-.953-.61-2.11-.61-3.472 0-1.42.193-2.626.58-3.618.389-.992.922-1.799 1.6-2.421a5.88 5.88 0 012.354-1.372 9.376 9.376 0 012.878-.437c.775 0 1.57.078 2.384.233a9.64 9.64 0 012.18.671v3.21a13.338 13.338 0 00-1.977-.7 7.15 7.15 0 00-2.034-.292c-1.357 0-2.413.34-3.169 1.02-.756.682-1.134 1.8-1.134 3.356 0 1.595.34 2.782 1.018 3.56.697.778 1.84 1.167 3.43 1.167.717 0 1.415-.107 2.093-.321a13.26 13.26 0 001.802-.759v3.239a9.136 9.136 0 01-2.122.73 10.62 10.62 0 01-2.442.262zm29.835.116c-1.453 0-2.723-.291-3.808-.875-1.085-.603-1.928-1.478-2.529-2.626-.601-1.147-.901-2.528-.901-4.143 0-2.567.61-4.522 1.831-5.864 1.241-1.362 2.975-2.043 5.204-2.043 1.608 0 2.897.35 3.866 1.05.988.701 1.706 1.703 2.151 3.006.36.994.575 2.14.645 3.437.035.65-.499 1.173-1.149 1.173H119.7c.121 1.07.463 1.927 1.025 2.567.717.798 1.812 1.197 3.285 1.197.601 0 1.173-.059 1.715-.176a13.198 13.198 0 001.541-.466c.485-.175.891-.34 1.221-.496v3.267a11.65 11.65 0 01-2.326.7c-.852.195-1.831.292-2.936.292zm-3.197-10.707a6.11 6.11 0 00-.292 1.313h6.268c-.115-.999-.363-1.748-.744-2.247-.484-.68-1.269-1.021-2.354-1.021-.659 0-1.241.155-1.745.467-.484.291-.862.787-1.133 1.488zm-18.895-6.772v17.395h3.778l.01-6.54 5.418 6.54h4.828l-7.114-8.575 6.544-6.589h-4.648l-5.024 5.661.016-10.954-3.808 3.062zm50.311 2.369c-.26 0-.491-.013-.695-.039a2.895 2.895 0 01-1.047-.336V9.648c.214.173.464.311.749.413.29.097.586.146.886.146.275 0 .481-.054.619-.161.142-.112.214-.273.214-.482a.473.473 0 00-.176-.383 1.49 1.49 0 00-.451-.253 19.473 19.473 0 00-.618-.221 7.15 7.15 0 01-.466-.184 1.789 1.789 0 01-.405-.268 1.197 1.197 0 01-.283-.398 1.495 1.495 0 01-.107-.597c0-.189.036-.375.107-.559.071-.184.181-.347.329-.49.147-.148.338-.265.572-.352a2.43 2.43 0 01.841-.13c.203 0 .382.013.534.038.158.026.309.064.451.115.143.051.29.115.443.192v1.002a4.237 4.237 0 00-.389-.245 2.208 2.208 0 00-.443-.199 1.721 1.721 0 00-.497-.084 1.34 1.34 0 00-.474.061.638.638 0 00-.305.207.523.523 0 00-.107.33c0 .157.043.285.13.382a.984.984 0 00.366.23c.158.06.339.124.543.19.198.062.384.13.557.207.179.072.334.164.466.276.138.112.245.25.321.413.082.164.123.363.123.597 0 .286-.067.549-.199.789a1.49 1.49 0 01-.596.581c-.26.143-.591.215-.993.215zm4.685-1.845h-.615v-.834h.485c.173 0 .318-.02.436-.061a.693.693 0 00.275-.184.702.702 0 00.137-.268 1.127 1.127 0 000-.643.698.698 0 00-.137-.276.601.601 0 00-.275-.183 1.206 1.206 0 00-.436-.07h-.985v1.14h-.007v2.164h.007v.968h-1.039V5.829h2.154c.586 0 1.044.135 1.375.405.331.27.497.681.497 1.233 0 .55-.166.974-.497 1.27-.331.296-.789.444-1.375.444z" fill="#1a1a1a"/></svg>
